<?xml version="1.0" encoding="utf-8" standalone="no"?>
<!DOCTYPE svg PUBLIC "-//W3C//DTD SVG 1.1//EN"
  "http://www.w3.org/Graphics/SVG/1.1/DTD/svg11.dtd">
<!-- Created with matplotlib (https://matplotlib.org/) -->
<svg height="430.56pt" version="1.1" viewBox="0 0 792 430.56" width="792pt" xmlns="http://www.w3.org/2000/svg" xmlns:xlink="http://www.w3.org/1999/xlink">
 <defs>
  <style type="text/css">
*{stroke-linecap:butt;stroke-linejoin:round;}
  </style>
 </defs>
 <g id="figure_1">
  <g id="patch_1">
   <path d="M 0 430.56 
L 792 430.56 
L 792 0 
L 0 0 
z
" style="fill:#ffffff;"/>
  </g>
  <g id="axes_1">
   <g id="matplotlib.axis_1"/>
   <g id="matplotlib.axis_2"/>
   <g id="patch_2">
    <path d="M 280.623785 172.869718 
C 278.972529 168.332929 277.015754 163.913239 274.76691 159.641026 
C 272.518066 155.368813 269.982317 151.253889 267.177092 147.324535 
L 180.193737 209.423266 
C 180.193737 209.423266 180.193737 209.423266 180.193737 209.423266 
C 180.193737 209.423266 180.193737 209.423266 180.193737 209.423266 
L 280.623785 172.869718 
z
" style="fill:#0066cc;stroke:#ffffff;stroke-linejoin:miter;"/>
   </g>
   <g id="patch_3">
    <path d="M 255.741976 152.633691 
C 240.419053 131.170462 217.681379 116.120138 191.937435 110.400743 
C 166.19349 104.681348 139.222017 108.688056 116.252363 121.644027 
C 93.28271 134.599997 75.901932 155.610058 67.479893 180.600684 
C 59.057853 205.59131 60.17646 232.835811 70.618833 257.0519 
L 168.758622 214.732421 
C 168.758622 214.732421 168.758622 214.732421 168.758622 214.732421 
C 168.758622 214.732421 168.758622 214.732421 168.758622 214.732421 
C 168.758622 214.732421 168.758622 214.732421 168.758622 214.732421 
C 168.758622 214.732421 168.758622 214.732421 168.758622 214.732421 
L 255.741976 152.633691 
z
" style="fill:#79a6d2;stroke:#ffffff;stroke-linejoin:miter;"/>
   </g>
   <g id="patch_4">
    <path d="M 71.159771 258.183754 
C 82.166982 283.709715 102.710142 303.960468 128.391269 314.600632 
C 154.072396 325.240796 182.918012 325.452721 208.752702 315.191038 
C 234.587393 304.929355 255.425879 284.982628 266.806954 259.621152 
C 278.18803 234.259675 279.237109 205.432364 269.729602 179.310713 
L 169.299559 215.864275 
C 169.299559 215.864275 169.299559 215.864275 169.299559 215.864275 
C 169.299559 215.864275 169.299559 215.864275 169.299559 215.864275 
C 169.299559 215.864275 169.299559 215.864275 169.299559 215.864275 
C 169.299559 215.864275 169.299559 215.864275 169.299559 215.864275 
L 71.159771 258.183754 
z
" style="fill:#c18b8b;stroke:#ffffff;stroke-linejoin:miter;"/>
   </g>
   <g id="text_1">
    <!-- Positive w/CNV -->
    <defs>
     <path d="M 7.71875 0 
L 7.71875 71.578125 
L 34.71875 71.578125 
Q 41.84375 71.578125 45.609375 70.90625 
Q 50.875 70.015625 54.4375 67.546875 
Q 58.015625 65.09375 60.1875 60.640625 
Q 62.359375 56.203125 62.359375 50.875 
Q 62.359375 41.75 56.546875 35.421875 
Q 50.734375 29.109375 35.546875 29.109375 
L 17.1875 29.109375 
L 17.1875 0 
z
M 17.1875 37.546875 
L 35.6875 37.546875 
Q 44.875 37.546875 48.734375 40.96875 
Q 52.59375 44.390625 52.59375 50.59375 
Q 52.59375 55.078125 50.3125 58.265625 
Q 48.046875 61.46875 44.34375 62.5 
Q 41.9375 63.140625 35.5 63.140625 
L 17.1875 63.140625 
z
" id="ArialMT-80"/>
     <path d="M 3.328125 25.921875 
Q 3.328125 40.328125 11.328125 47.265625 
Q 18.015625 53.03125 27.640625 53.03125 
Q 38.328125 53.03125 45.109375 46.015625 
Q 51.90625 39.015625 51.90625 26.65625 
Q 51.90625 16.65625 48.90625 10.90625 
Q 45.90625 5.171875 40.15625 2 
Q 34.421875 -1.171875 27.640625 -1.171875 
Q 16.75 -1.171875 10.03125 5.8125 
Q 3.328125 12.796875 3.328125 25.921875 
z
M 12.359375 25.921875 
Q 12.359375 15.96875 16.703125 11.015625 
Q 21.046875 6.0625 27.640625 6.0625 
Q 34.1875 6.0625 38.53125 11.03125 
Q 42.875 16.015625 42.875 26.21875 
Q 42.875 35.84375 38.5 40.796875 
Q 34.125 45.75 27.640625 45.75 
Q 21.046875 45.75 16.703125 40.8125 
Q 12.359375 35.890625 12.359375 25.921875 
z
" id="ArialMT-111"/>
     <path d="M 3.078125 15.484375 
L 11.765625 16.84375 
Q 12.5 11.625 15.84375 8.84375 
Q 19.1875 6.0625 25.203125 6.0625 
Q 31.25 6.0625 34.171875 8.515625 
Q 37.109375 10.984375 37.109375 14.3125 
Q 37.109375 17.28125 34.515625 19 
Q 32.71875 20.171875 25.53125 21.96875 
Q 15.875 24.421875 12.140625 26.203125 
Q 8.40625 27.984375 6.46875 31.125 
Q 4.546875 34.28125 4.546875 38.09375 
Q 4.546875 41.546875 6.125 44.5 
Q 7.71875 47.46875 10.453125 49.421875 
Q 12.5 50.921875 16.03125 51.96875 
Q 19.578125 53.03125 23.640625 53.03125 
Q 29.734375 53.03125 34.34375 51.265625 
Q 38.96875 49.515625 41.15625 46.5 
Q 43.359375 43.5 44.1875 38.484375 
L 35.59375 37.3125 
Q 35.015625 41.3125 32.203125 43.546875 
Q 29.390625 45.796875 24.265625 45.796875 
Q 18.21875 45.796875 15.625 43.796875 
Q 13.03125 41.796875 13.03125 39.109375 
Q 13.03125 37.40625 14.109375 36.03125 
Q 15.1875 34.625 17.484375 33.6875 
Q 18.796875 33.203125 25.25 31.453125 
Q 34.578125 28.953125 38.25 27.359375 
Q 41.9375 25.78125 44.03125 22.75 
Q 46.140625 19.734375 46.140625 15.234375 
Q 46.140625 10.84375 43.578125 6.953125 
Q 41.015625 3.078125 36.171875 0.953125 
Q 31.34375 -1.171875 25.25 -1.171875 
Q 15.140625 -1.171875 9.84375 3.03125 
Q 4.546875 7.234375 3.078125 15.484375 
z
" id="ArialMT-115"/>
     <path d="M 6.640625 61.46875 
L 6.640625 71.578125 
L 15.4375 71.578125 
L 15.4375 61.46875 
z
M 6.640625 0 
L 6.640625 51.859375 
L 15.4375 51.859375 
L 15.4375 0 
z
" id="ArialMT-105"/>
     <path d="M 25.78125 7.859375 
L 27.046875 0.09375 
Q 23.34375 -0.6875 20.40625 -0.6875 
Q 15.625 -0.6875 12.984375 0.828125 
Q 10.359375 2.34375 9.28125 4.8125 
Q 8.203125 7.28125 8.203125 15.1875 
L 8.203125 45.015625 
L 1.765625 45.015625 
L 1.765625 51.859375 
L 8.203125 51.859375 
L 8.203125 64.703125 
L 16.9375 69.96875 
L 16.9375 51.859375 
L 25.78125 51.859375 
L 25.78125 45.015625 
L 16.9375 45.015625 
L 16.9375 14.703125 
Q 16.9375 10.9375 17.40625 9.859375 
Q 17.875 8.796875 18.921875 8.15625 
Q 19.96875 7.515625 21.921875 7.515625 
Q 23.390625 7.515625 25.78125 7.859375 
z
" id="ArialMT-116"/>
     <path d="M 21 0 
L 1.265625 51.859375 
L 10.546875 51.859375 
L 21.6875 20.796875 
Q 23.484375 15.765625 25 10.359375 
Q 26.171875 14.453125 28.265625 20.21875 
L 39.796875 51.859375 
L 48.828125 51.859375 
L 29.203125 0 
z
" id="ArialMT-118"/>
     <path d="M 42.09375 16.703125 
L 51.171875 15.578125 
Q 49.03125 7.625 43.21875 3.21875 
Q 37.40625 -1.171875 28.375 -1.171875 
Q 17 -1.171875 10.328125 5.828125 
Q 3.65625 12.84375 3.65625 25.484375 
Q 3.65625 38.578125 10.390625 45.796875 
Q 17.140625 53.03125 27.875 53.03125 
Q 38.28125 53.03125 44.875 45.953125 
Q 51.46875 38.875 51.46875 26.03125 
Q 51.46875 25.25 51.421875 23.6875 
L 12.75 23.6875 
Q 13.234375 15.140625 17.578125 10.59375 
Q 21.921875 6.0625 28.421875 6.0625 
Q 33.25 6.0625 36.671875 8.59375 
Q 40.09375 11.140625 42.09375 16.703125 
z
M 13.234375 30.90625 
L 42.1875 30.90625 
Q 41.609375 37.453125 38.875 40.71875 
Q 34.671875 45.796875 27.984375 45.796875 
Q 21.921875 45.796875 17.796875 41.75 
Q 13.671875 37.703125 13.234375 30.90625 
z
" id="ArialMT-101"/>
     <path id="ArialMT-32"/>
     <path d="M 16.15625 0 
L 0.296875 51.859375 
L 9.375 51.859375 
L 17.625 21.921875 
L 20.703125 10.796875 
Q 20.90625 11.625 23.390625 21.484375 
L 31.640625 51.859375 
L 40.671875 51.859375 
L 48.4375 21.78125 
L 51.03125 11.859375 
L 54 21.875 
L 62.890625 51.859375 
L 71.4375 51.859375 
L 55.21875 0 
L 46.09375 0 
L 37.84375 31.0625 
L 35.84375 39.890625 
L 25.34375 0 
z
" id="ArialMT-119"/>
     <path d="M 0 -1.21875 
L 20.75 72.796875 
L 27.78125 72.796875 
L 7.078125 -1.21875 
z
" id="ArialMT-47"/>
     <path d="M 58.796875 25.09375 
L 68.265625 22.703125 
Q 65.28125 11.03125 57.546875 4.90625 
Q 49.8125 -1.21875 38.625 -1.21875 
Q 27.046875 -1.21875 19.796875 3.484375 
Q 12.546875 8.203125 8.765625 17.140625 
Q 4.984375 26.078125 4.984375 36.328125 
Q 4.984375 47.515625 9.25 55.828125 
Q 13.53125 64.15625 21.40625 68.46875 
Q 29.296875 72.796875 38.765625 72.796875 
Q 49.515625 72.796875 56.828125 67.328125 
Q 64.15625 61.859375 67.046875 51.953125 
L 57.71875 49.75 
Q 55.21875 57.5625 50.484375 61.125 
Q 45.75 64.703125 38.578125 64.703125 
Q 30.328125 64.703125 24.78125 60.734375 
Q 19.234375 56.78125 16.984375 50.109375 
Q 14.75 43.453125 14.75 36.375 
Q 14.75 27.25 17.40625 20.4375 
Q 20.0625 13.625 25.671875 10.25 
Q 31.296875 6.890625 37.84375 6.890625 
Q 45.796875 6.890625 51.3125 11.46875 
Q 56.84375 16.0625 58.796875 25.09375 
z
" id="ArialMT-67"/>
     <path d="M 7.625 0 
L 7.625 71.578125 
L 17.328125 71.578125 
L 54.9375 15.375 
L 54.9375 71.578125 
L 64.015625 71.578125 
L 64.015625 0 
L 54.296875 0 
L 16.703125 56.25 
L 16.703125 0 
z
" id="ArialMT-78"/>
     <path d="M 28.171875 0 
L 0.4375 71.578125 
L 10.6875 71.578125 
L 29.296875 19.578125 
Q 31.546875 13.328125 33.0625 7.859375 
Q 34.71875 13.71875 36.921875 19.578125 
L 56.25 71.578125 
L 65.921875 71.578125 
L 37.890625 0 
z
" id="ArialMT-86"/>
    </defs>
    <g style="fill:#262626;" transform="translate(286.115691 150.194845)scale(0.12 -0.12)">
     <use xlink:href="#ArialMT-80"/>
     <use x="66.699219" xlink:href="#ArialMT-111"/>
     <use x="122.314453" xlink:href="#ArialMT-115"/>
     <use x="172.314453" xlink:href="#ArialMT-105"/>
     <use x="194.53125" xlink:href="#ArialMT-116"/>
     <use x="222.314453" xlink:href="#ArialMT-105"/>
     <use x="244.53125" xlink:href="#ArialMT-118"/>
     <use x="294.53125" xlink:href="#ArialMT-101"/>
     <use x="350.146484" xlink:href="#ArialMT-32"/>
     <use x="377.929688" xlink:href="#ArialMT-119"/>
     <use x="450.146484" xlink:href="#ArialMT-47"/>
     <use x="477.929688" xlink:href="#ArialMT-67"/>
     <use x="550.146484" xlink:href="#ArialMT-78"/>
     <use x="622.363281" xlink:href="#ArialMT-86"/>
    </g>
    <!-- 4.3% (21) -->
    <defs>
     <path d="M 32.328125 0 
L 32.328125 17.140625 
L 1.265625 17.140625 
L 1.265625 25.203125 
L 33.9375 71.578125 
L 41.109375 71.578125 
L 41.109375 25.203125 
L 50.78125 25.203125 
L 50.78125 17.140625 
L 41.109375 17.140625 
L 41.109375 0 
z
M 32.328125 25.203125 
L 32.328125 57.46875 
L 9.90625 25.203125 
z
" id="ArialMT-52"/>
     <path d="M 9.078125 0 
L 9.078125 10.015625 
L 19.09375 10.015625 
L 19.09375 0 
z
" id="ArialMT-46"/>
     <path d="M 4.203125 18.890625 
L 12.984375 20.0625 
Q 14.5 12.59375 18.140625 9.296875 
Q 21.78125 6 27 6 
Q 33.203125 6 37.46875 10.296875 
Q 41.75 14.59375 41.75 20.953125 
Q 41.75 27 37.796875 30.921875 
Q 33.84375 34.859375 27.734375 34.859375 
Q 25.25 34.859375 21.53125 33.890625 
L 22.515625 41.609375 
Q 23.390625 41.5 23.921875 41.5 
Q 29.546875 41.5 34.03125 44.421875 
Q 38.53125 47.359375 38.53125 53.46875 
Q 38.53125 58.296875 35.25 61.46875 
Q 31.984375 64.65625 26.8125 64.65625 
Q 21.6875 64.65625 18.265625 61.421875 
Q 14.84375 58.203125 13.875 51.765625 
L 5.078125 53.328125 
Q 6.6875 62.15625 12.390625 67.015625 
Q 18.109375 71.875 26.609375 71.875 
Q 32.46875 71.875 37.390625 69.359375 
Q 42.328125 66.84375 44.9375 62.5 
Q 47.5625 58.15625 47.5625 53.265625 
Q 47.5625 48.640625 45.0625 44.828125 
Q 42.578125 41.015625 37.703125 38.765625 
Q 44.046875 37.3125 47.5625 32.6875 
Q 51.078125 28.078125 51.078125 21.140625 
Q 51.078125 11.765625 44.234375 5.25 
Q 37.40625 -1.265625 26.953125 -1.265625 
Q 17.53125 -1.265625 11.296875 4.34375 
Q 5.078125 9.96875 4.203125 18.890625 
z
" id="ArialMT-51"/>
     <path d="M 5.8125 54.390625 
Q 5.8125 62.0625 9.671875 67.421875 
Q 13.53125 72.796875 20.84375 72.796875 
Q 27.59375 72.796875 32 67.984375 
Q 36.421875 63.1875 36.421875 53.859375 
Q 36.421875 44.78125 31.953125 39.875 
Q 27.484375 34.96875 20.953125 34.96875 
Q 14.453125 34.96875 10.125 39.796875 
Q 5.8125 44.625 5.8125 54.390625 
z
M 21.09375 66.75 
Q 17.828125 66.75 15.65625 63.90625 
Q 13.484375 61.078125 13.484375 53.515625 
Q 13.484375 46.625 15.671875 43.8125 
Q 17.875 41.015625 21.09375 41.015625 
Q 24.421875 41.015625 26.59375 43.84375 
Q 28.765625 46.6875 28.765625 54.203125 
Q 28.765625 61.140625 26.5625 63.9375 
Q 24.359375 66.75 21.09375 66.75 
z
M 21.140625 -2.640625 
L 60.296875 72.796875 
L 67.4375 72.796875 
L 28.421875 -2.640625 
z
M 52.09375 16.796875 
Q 52.09375 24.515625 55.953125 29.859375 
Q 59.8125 35.203125 67.1875 35.203125 
Q 73.921875 35.203125 78.34375 30.390625 
Q 82.765625 25.59375 82.765625 16.265625 
Q 82.765625 7.171875 78.296875 2.265625 
Q 73.828125 -2.640625 67.234375 -2.640625 
Q 60.75 -2.640625 56.421875 2.21875 
Q 52.09375 7.078125 52.09375 16.796875 
z
M 67.4375 29.15625 
Q 64.109375 29.15625 61.9375 26.3125 
Q 59.765625 23.484375 59.765625 15.921875 
Q 59.765625 9.078125 61.953125 6.25 
Q 64.15625 3.421875 67.390625 3.421875 
Q 70.75 3.421875 72.921875 6.25 
Q 75.09375 9.078125 75.09375 16.609375 
Q 75.09375 23.53125 72.890625 26.34375 
Q 70.703125 29.15625 67.4375 29.15625 
z
" id="ArialMT-37"/>
     <path d="M 23.390625 -21.046875 
Q 16.109375 -11.859375 11.078125 0.4375 
Q 6.0625 12.75 6.0625 25.921875 
Q 6.0625 37.546875 9.8125 48.1875 
Q 14.203125 60.546875 23.390625 72.796875 
L 29.6875 72.796875 
Q 23.78125 62.640625 21.875 58.296875 
Q 18.890625 51.5625 17.1875 44.234375 
Q 15.09375 35.109375 15.09375 25.875 
Q 15.09375 2.390625 29.6875 -21.046875 
z
" id="ArialMT-40"/>
     <path d="M 50.34375 8.453125 
L 50.34375 0 
L 3.03125 0 
Q 2.9375 3.171875 4.046875 6.109375 
Q 5.859375 10.9375 9.828125 15.625 
Q 13.8125 20.3125 21.34375 26.46875 
Q 33.015625 36.03125 37.109375 41.625 
Q 41.21875 47.21875 41.21875 52.203125 
Q 41.21875 57.421875 37.46875 61 
Q 33.734375 64.59375 27.734375 64.59375 
Q 21.390625 64.59375 17.578125 60.78125 
Q 13.765625 56.984375 13.71875 50.25 
L 4.6875 51.171875 
Q 5.609375 61.28125 11.65625 66.578125 
Q 17.71875 71.875 27.9375 71.875 
Q 38.234375 71.875 44.234375 66.15625 
Q 50.25 60.453125 50.25 52 
Q 50.25 47.703125 48.484375 43.546875 
Q 46.734375 39.40625 42.65625 34.8125 
Q 38.578125 30.21875 29.109375 22.21875 
Q 21.1875 15.578125 18.9375 13.203125 
Q 16.703125 10.84375 15.234375 8.453125 
z
" id="ArialMT-50"/>
     <path d="M 37.25 0 
L 28.46875 0 
L 28.46875 56 
Q 25.296875 52.984375 20.140625 49.953125 
Q 14.984375 46.921875 10.890625 45.40625 
L 10.890625 53.90625 
Q 18.265625 57.375 23.78125 62.296875 
Q 29.296875 67.234375 31.59375 71.875 
L 37.25 71.875 
z
" id="ArialMT-49"/>
     <path d="M 12.359375 -21.046875 
L 6.0625 -21.046875 
Q 20.65625 2.390625 20.65625 25.875 
Q 20.65625 35.0625 18.5625 44.09375 
Q 16.890625 51.421875 13.921875 58.15625 
Q 12.015625 62.546875 6.0625 72.796875 
L 12.359375 72.796875 
Q 21.53125 60.546875 25.921875 48.1875 
Q 29.6875 37.546875 29.6875 25.921875 
Q 29.6875 12.75 24.625 0.4375 
Q 19.578125 -11.859375 12.359375 -21.046875 
z
" id="ArialMT-41"/>
    </defs>
    <g style="fill:#262626;" transform="translate(286.115691 163.062595)scale(0.12 -0.12)">
     <use xlink:href="#ArialMT-52"/>
     <use x="55.615234" xlink:href="#ArialMT-46"/>
     <use x="83.398438" xlink:href="#ArialMT-51"/>
     <use x="139.013672" xlink:href="#ArialMT-37"/>
     <use x="227.929688" xlink:href="#ArialMT-32"/>
     <use x="255.712891" xlink:href="#ArialMT-40"/>
     <use x="289.013672" xlink:href="#ArialMT-50"/>
     <use x="344.628906" xlink:href="#ArialMT-49"/>
     <use x="400.244141" xlink:href="#ArialMT-41"/>
    </g>
   </g>
   <g id="text_2">
    <!-- NGS Positive -->
    <defs>
     <path d="M 41.21875 28.078125 
L 41.21875 36.46875 
L 71.53125 36.53125 
L 71.53125 9.96875 
Q 64.546875 4.390625 57.125 1.578125 
Q 49.703125 -1.21875 41.890625 -1.21875 
Q 31.34375 -1.21875 22.71875 3.296875 
Q 14.109375 7.8125 9.71875 16.359375 
Q 5.328125 24.90625 5.328125 35.453125 
Q 5.328125 45.90625 9.6875 54.953125 
Q 14.0625 64.015625 22.265625 68.40625 
Q 30.46875 72.796875 41.15625 72.796875 
Q 48.921875 72.796875 55.1875 70.28125 
Q 61.46875 67.78125 65.03125 63.28125 
Q 68.609375 58.796875 70.453125 51.5625 
L 61.921875 49.21875 
Q 60.296875 54.6875 57.90625 57.8125 
Q 55.515625 60.9375 51.0625 62.8125 
Q 46.625 64.703125 41.21875 64.703125 
Q 34.71875 64.703125 29.984375 62.71875 
Q 25.25 60.75 22.34375 57.515625 
Q 19.4375 54.296875 17.828125 50.4375 
Q 15.09375 43.796875 15.09375 36.03125 
Q 15.09375 26.46875 18.390625 20.015625 
Q 21.6875 13.578125 27.984375 10.453125 
Q 34.28125 7.328125 41.359375 7.328125 
Q 47.515625 7.328125 53.375 9.6875 
Q 59.234375 12.0625 62.25 14.75 
L 62.25 28.078125 
z
" id="ArialMT-71"/>
     <path d="M 4.5 23 
L 13.421875 23.78125 
Q 14.0625 18.40625 16.375 14.96875 
Q 18.703125 11.53125 23.578125 9.40625 
Q 28.46875 7.28125 34.578125 7.28125 
Q 39.984375 7.28125 44.140625 8.890625 
Q 48.296875 10.5 50.3125 13.296875 
Q 52.34375 16.109375 52.34375 19.4375 
Q 52.34375 22.796875 50.390625 25.3125 
Q 48.4375 27.828125 43.953125 29.546875 
Q 41.0625 30.671875 31.203125 33.03125 
Q 21.34375 35.40625 17.390625 37.5 
Q 12.25 40.1875 9.734375 44.15625 
Q 7.234375 48.140625 7.234375 53.078125 
Q 7.234375 58.5 10.296875 63.203125 
Q 13.375 67.921875 19.28125 70.359375 
Q 25.203125 72.796875 32.421875 72.796875 
Q 40.375 72.796875 46.453125 70.234375 
Q 52.546875 67.671875 55.8125 62.6875 
Q 59.078125 57.71875 59.328125 51.421875 
L 50.25 50.734375 
Q 49.515625 57.515625 45.28125 60.984375 
Q 41.0625 64.453125 32.8125 64.453125 
Q 24.21875 64.453125 20.28125 61.296875 
Q 16.359375 58.15625 16.359375 53.71875 
Q 16.359375 49.859375 19.140625 47.359375 
Q 21.875 44.875 33.421875 42.265625 
Q 44.96875 39.65625 49.265625 37.703125 
Q 55.515625 34.8125 58.484375 30.390625 
Q 61.46875 25.984375 61.46875 20.21875 
Q 61.46875 14.5 58.203125 9.4375 
Q 54.9375 4.390625 48.796875 1.578125 
Q 42.671875 -1.21875 35.015625 -1.21875 
Q 25.296875 -1.21875 18.71875 1.609375 
Q 12.15625 4.4375 8.421875 10.125 
Q 4.6875 15.828125 4.5 23 
z
" id="ArialMT-83"/>
    </defs>
    <g style="fill:#262626;" transform="translate(38.596612 107.001107)scale(0.12 -0.12)">
     <use xlink:href="#ArialMT-78"/>
     <use x="72.216797" xlink:href="#ArialMT-71"/>
     <use x="150" xlink:href="#ArialMT-83"/>
     <use x="216.699219" xlink:href="#ArialMT-32"/>
     <use x="244.482422" xlink:href="#ArialMT-80"/>
     <use x="311.181641" xlink:href="#ArialMT-111"/>
     <use x="366.796875" xlink:href="#ArialMT-115"/>
     <use x="416.796875" xlink:href="#ArialMT-105"/>
     <use x="439.013672" xlink:href="#ArialMT-116"/>
     <use x="466.796875" xlink:href="#ArialMT-105"/>
     <use x="489.013672" xlink:href="#ArialMT-118"/>
     <use x="539.013672" xlink:href="#ArialMT-101"/>
    </g>
    <!-- 46.6% (227) -->
    <defs>
     <path d="M 49.75 54.046875 
L 41.015625 53.375 
Q 39.84375 58.546875 37.703125 60.890625 
Q 34.125 64.65625 28.90625 64.65625 
Q 24.703125 64.65625 21.53125 62.3125 
Q 17.390625 59.28125 14.984375 53.46875 
Q 12.59375 47.65625 12.5 36.921875 
Q 15.671875 41.75 20.265625 44.09375 
Q 24.859375 46.4375 29.890625 46.4375 
Q 38.671875 46.4375 44.84375 39.96875 
Q 51.03125 33.5 51.03125 23.25 
Q 51.03125 16.5 48.125 10.71875 
Q 45.21875 4.9375 40.140625 1.859375 
Q 35.0625 -1.21875 28.609375 -1.21875 
Q 17.625 -1.21875 10.6875 6.859375 
Q 3.765625 14.9375 3.765625 33.5 
Q 3.765625 54.25 11.421875 63.671875 
Q 18.109375 71.875 29.4375 71.875 
Q 37.890625 71.875 43.28125 67.140625 
Q 48.6875 62.40625 49.75 54.046875 
z
M 13.875 23.1875 
Q 13.875 18.65625 15.796875 14.5 
Q 17.71875 10.359375 21.1875 8.171875 
Q 24.65625 6 28.46875 6 
Q 34.03125 6 38.03125 10.484375 
Q 42.046875 14.984375 42.046875 22.703125 
Q 42.046875 30.125 38.078125 34.390625 
Q 34.125 38.671875 28.125 38.671875 
Q 22.171875 38.671875 18.015625 34.390625 
Q 13.875 30.125 13.875 23.1875 
z
" id="ArialMT-54"/>
     <path d="M 4.734375 62.203125 
L 4.734375 70.65625 
L 51.078125 70.65625 
L 51.078125 63.8125 
Q 44.234375 56.546875 37.515625 44.484375 
Q 30.8125 32.421875 27.15625 19.671875 
Q 24.515625 10.6875 23.78125 0 
L 14.75 0 
Q 14.890625 8.453125 18.0625 20.40625 
Q 21.234375 32.375 27.171875 43.484375 
Q 33.109375 54.59375 39.796875 62.203125 
z
" id="ArialMT-55"/>
    </defs>
    <g style="fill:#262626;" transform="translate(44.583487 119.868857)scale(0.12 -0.12)">
     <use xlink:href="#ArialMT-52"/>
     <use x="55.615234" xlink:href="#ArialMT-54"/>
     <use x="111.230469" xlink:href="#ArialMT-46"/>
     <use x="139.013672" xlink:href="#ArialMT-54"/>
     <use x="194.628906" xlink:href="#ArialMT-37"/>
     <use x="283.544922" xlink:href="#ArialMT-32"/>
     <use x="311.328125" xlink:href="#ArialMT-40"/>
     <use x="344.628906" xlink:href="#ArialMT-50"/>
     <use x="400.244141" xlink:href="#ArialMT-50"/>
     <use x="455.859375" xlink:href="#ArialMT-55"/>
     <use x="511.474609" xlink:href="#ArialMT-41"/>
    </g>
   </g>
   <g id="text_3">
    <!-- Negative -->
    <defs>
     <path d="M 4.984375 -4.296875 
L 13.53125 -5.5625 
Q 14.0625 -9.515625 16.5 -11.328125 
Q 19.78125 -13.765625 25.4375 -13.765625 
Q 31.546875 -13.765625 34.859375 -11.328125 
Q 38.1875 -8.890625 39.359375 -4.5 
Q 40.046875 -1.8125 39.984375 6.78125 
Q 34.234375 0 25.640625 0 
Q 14.9375 0 9.078125 7.71875 
Q 3.21875 15.4375 3.21875 26.21875 
Q 3.21875 33.640625 5.90625 39.90625 
Q 8.59375 46.1875 13.6875 49.609375 
Q 18.796875 53.03125 25.6875 53.03125 
Q 34.859375 53.03125 40.828125 45.609375 
L 40.828125 51.859375 
L 48.921875 51.859375 
L 48.921875 7.03125 
Q 48.921875 -5.078125 46.453125 -10.125 
Q 44 -15.1875 38.640625 -18.109375 
Q 33.296875 -21.046875 25.484375 -21.046875 
Q 16.21875 -21.046875 10.5 -16.875 
Q 4.78125 -12.703125 4.984375 -4.296875 
z
M 12.25 26.859375 
Q 12.25 16.65625 16.296875 11.96875 
Q 20.359375 7.28125 26.46875 7.28125 
Q 32.515625 7.28125 36.609375 11.9375 
Q 40.71875 16.609375 40.71875 26.5625 
Q 40.71875 36.078125 36.5 40.90625 
Q 32.28125 45.75 26.3125 45.75 
Q 20.453125 45.75 16.34375 40.984375 
Q 12.25 36.234375 12.25 26.859375 
z
" id="ArialMT-103"/>
     <path d="M 40.4375 6.390625 
Q 35.546875 2.25 31.03125 0.53125 
Q 26.515625 -1.171875 21.34375 -1.171875 
Q 12.796875 -1.171875 8.203125 3 
Q 3.609375 7.171875 3.609375 13.671875 
Q 3.609375 17.484375 5.34375 20.625 
Q 7.078125 23.78125 9.890625 25.6875 
Q 12.703125 27.59375 16.21875 28.5625 
Q 18.796875 29.25 24.03125 29.890625 
Q 34.671875 31.15625 39.703125 32.90625 
Q 39.75 34.71875 39.75 35.203125 
Q 39.75 40.578125 37.25 42.78125 
Q 33.890625 45.75 27.25 45.75 
Q 21.046875 45.75 18.09375 43.578125 
Q 15.140625 41.40625 13.71875 35.890625 
L 5.125 37.0625 
Q 6.296875 42.578125 8.984375 45.96875 
Q 11.671875 49.359375 16.75 51.1875 
Q 21.828125 53.03125 28.515625 53.03125 
Q 35.15625 53.03125 39.296875 51.46875 
Q 43.453125 49.90625 45.40625 47.53125 
Q 47.359375 45.171875 48.140625 41.546875 
Q 48.578125 39.3125 48.578125 33.453125 
L 48.578125 21.734375 
Q 48.578125 9.46875 49.140625 6.21875 
Q 49.703125 2.984375 51.375 0 
L 42.1875 0 
Q 40.828125 2.734375 40.4375 6.390625 
z
M 39.703125 26.03125 
Q 34.90625 24.078125 25.34375 22.703125 
Q 19.921875 21.921875 17.671875 20.9375 
Q 15.4375 19.96875 14.203125 18.09375 
Q 12.984375 16.21875 12.984375 13.921875 
Q 12.984375 10.40625 15.640625 8.0625 
Q 18.3125 5.71875 23.4375 5.71875 
Q 28.515625 5.71875 32.46875 7.9375 
Q 36.421875 10.15625 38.28125 14.015625 
Q 39.703125 17 39.703125 22.796875 
z
" id="ArialMT-97"/>
    </defs>
    <g style="fill:#262626;" transform="translate(213.487079 323.637937)scale(0.12 -0.12)">
     <use xlink:href="#ArialMT-78"/>
     <use x="72.216797" xlink:href="#ArialMT-101"/>
     <use x="127.832031" xlink:href="#ArialMT-103"/>
     <use x="183.447266" xlink:href="#ArialMT-97"/>
     <use x="239.0625" xlink:href="#ArialMT-116"/>
     <use x="266.845703" xlink:href="#ArialMT-105"/>
     <use x="289.0625" xlink:href="#ArialMT-118"/>
     <use x="339.0625" xlink:href="#ArialMT-101"/>
    </g>
    <!-- 49.1% (239) -->
    <defs>
     <path d="M 5.46875 16.546875 
L 13.921875 17.328125 
Q 14.984375 11.375 18.015625 8.6875 
Q 21.046875 6 25.78125 6 
Q 29.828125 6 32.875 7.859375 
Q 35.9375 9.71875 37.890625 12.8125 
Q 39.84375 15.921875 41.15625 21.1875 
Q 42.484375 26.46875 42.484375 31.9375 
Q 42.484375 32.515625 42.4375 33.6875 
Q 39.796875 29.5 35.234375 26.875 
Q 30.671875 24.265625 25.34375 24.265625 
Q 16.453125 24.265625 10.296875 30.703125 
Q 4.15625 37.15625 4.15625 47.703125 
Q 4.15625 58.59375 10.578125 65.234375 
Q 17 71.875 26.65625 71.875 
Q 33.640625 71.875 39.421875 68.109375 
Q 45.21875 64.359375 48.21875 57.390625 
Q 51.21875 50.4375 51.21875 37.25 
Q 51.21875 23.53125 48.234375 15.40625 
Q 45.265625 7.28125 39.375 3.03125 
Q 33.5 -1.21875 25.59375 -1.21875 
Q 17.1875 -1.21875 11.859375 3.4375 
Q 6.546875 8.109375 5.46875 16.546875 
z
M 41.453125 48.140625 
Q 41.453125 55.71875 37.421875 60.15625 
Q 33.40625 64.59375 27.734375 64.59375 
Q 21.875 64.59375 17.53125 59.8125 
Q 13.1875 55.03125 13.1875 47.40625 
Q 13.1875 40.578125 17.3125 36.296875 
Q 21.4375 32.03125 27.484375 32.03125 
Q 33.59375 32.03125 37.515625 36.296875 
Q 41.453125 40.578125 41.453125 48.140625 
z
" id="ArialMT-57"/>
    </defs>
    <g style="fill:#262626;" transform="translate(213.487079 336.646312)scale(0.12 -0.12)">
     <use xlink:href="#ArialMT-52"/>
     <use x="55.615234" xlink:href="#ArialMT-57"/>
     <use x="111.230469" xlink:href="#ArialMT-46"/>
     <use x="139.013672" xlink:href="#ArialMT-49"/>
     <use x="194.628906" xlink:href="#ArialMT-37"/>
     <use x="283.544922" xlink:href="#ArialMT-32"/>
     <use x="311.328125" xlink:href="#ArialMT-40"/>
     <use x="344.628906" xlink:href="#ArialMT-50"/>
     <use x="400.244141" xlink:href="#ArialMT-51"/>
     <use x="455.859375" xlink:href="#ArialMT-57"/>
     <use x="511.474609" xlink:href="#ArialMT-41"/>
    </g>
   </g>
   <g id="text_4">
    <!-- a -->
    <defs>
     <path d="M 17.4375 36.03125 
L 4.984375 38.28125 
Q 7.078125 45.796875 12.203125 49.40625 
Q 17.328125 53.03125 27.4375 53.03125 
Q 36.625 53.03125 41.109375 50.859375 
Q 45.609375 48.6875 47.4375 45.34375 
Q 49.265625 42 49.265625 33.0625 
L 49.125 17.046875 
Q 49.125 10.203125 49.78125 6.953125 
Q 50.4375 3.71875 52.25 0 
L 38.671875 0 
Q 38.140625 1.375 37.359375 4.046875 
Q 37.015625 5.28125 36.859375 5.671875 
Q 33.34375 2.25 29.34375 0.53125 
Q 25.34375 -1.171875 20.796875 -1.171875 
Q 12.796875 -1.171875 8.171875 3.171875 
Q 3.5625 7.515625 3.5625 14.15625 
Q 3.5625 18.5625 5.65625 22 
Q 7.765625 25.4375 11.546875 27.265625 
Q 15.328125 29.109375 22.46875 30.46875 
Q 32.078125 32.28125 35.796875 33.84375 
L 35.796875 35.203125 
Q 35.796875 39.15625 33.84375 40.84375 
Q 31.890625 42.53125 26.46875 42.53125 
Q 22.796875 42.53125 20.75 41.09375 
Q 18.703125 39.65625 17.4375 36.03125 
z
M 35.796875 24.90625 
Q 33.15625 24.03125 27.4375 22.796875 
Q 21.734375 21.578125 19.96875 20.40625 
Q 17.28125 18.5 17.28125 15.578125 
Q 17.28125 12.703125 19.421875 10.59375 
Q 21.578125 8.5 24.90625 8.5 
Q 28.609375 8.5 31.984375 10.9375 
Q 34.46875 12.796875 35.25 15.484375 
Q 35.796875 17.234375 35.796875 22.171875 
z
" id="Arial-BoldMT-97"/>
    </defs>
    <g style="fill:#262626;" transform="translate(3.00024 69.562758)scale(0.16 -0.16)">
     <use xlink:href="#Arial-BoldMT-97"/>
    </g>
   </g>
  </g>
  <g id="axes_2">
   <g id="matplotlib.axis_3"/>
   <g id="matplotlib.axis_4"/>
   <g id="patch_5">
    <path d="M 625.625564 170.701489 
C 614.655966 151.701588 596.969114 137.473173 576.060443 130.828191 
C 555.151773 124.18321 532.495808 125.59028 512.570029 134.771325 
C 492.644249 143.95237 476.853862 160.259922 468.319509 180.471134 
C 459.785156 200.682347 459.108696 223.371881 466.42382 244.055625 
L 549.40229 214.709016 
C 549.40229 214.709016 549.40229 214.709016 549.40229 214.709016 
C 549.40229 214.709016 549.40229 214.709016 549.40229 214.709016 
C 549.40229 214.709016 549.40229 214.709016 549.40229 214.709016 
C 549.40229 214.709016 549.40229 214.709016 549.40229 214.709016 
L 625.625564 170.701489 
z
" style="fill:#0066cc;stroke:#ffffff;stroke-linejoin:miter;"/>
   </g>
   <g id="patch_6">
    <path d="M 466.949995 245.197592 
C 471.030613 256.735671 477.47327 267.296813 485.865401 276.204722 
C 494.257532 285.112632 504.416098 292.173019 515.690583 296.933765 
C 526.965068 301.69451 539.109566 304.051778 551.346389 303.854617 
C 563.583213 303.657456 575.645465 300.910167 586.760727 295.788675 
C 597.875988 290.667183 607.801825 283.283194 615.902624 274.109548 
C 624.003423 264.935903 630.102499 254.172687 633.809291 242.509137 
C 637.516082 230.845586 638.74974 218.536093 637.431267 206.36891 
C 636.112793 194.201727 632.270945 182.442231 626.151739 171.843456 
L 549.928465 215.850984 
C 549.928465 215.850984 549.928465 215.850984 549.928465 215.850984 
C 549.928465 215.850984 549.928465 215.850984 549.928465 215.850984 
C 549.928465 215.850984 549.928465 215.850984 549.928465 215.850984 
C 549.928465 215.850984 549.928465 215.850984 549.928465 215.850984 
C 549.928465 215.850984 549.928465 215.850984 549.928465 215.850984 
C 549.928465 215.850984 549.928465 215.850984 549.928465 215.850984 
C 549.928465 215.850984 549.928465 215.850984 549.928465 215.850984 
C 549.928465 215.850984 549.928465 215.850984 549.928465 215.850984 
L 466.949995 245.197592 
z
" style="fill:#b81414;stroke:#ffffff;stroke-linejoin:miter;"/>
   </g>
   <g id="patch_7">
    <path d="M 654.614003 154.453569 
C 647.98729 142.975764 639.515215 132.667336 629.538452 123.9428 
C 619.561689 115.218263 608.21578 108.196149 595.956959 103.158823 
L 584.009633 132.233804 
C 593.076053 135.959326 601.467298 141.152765 608.845946 147.605287 
C 616.224593 154.057809 622.490399 161.68175 627.391406 170.170544 
L 654.614003 154.453569 
z
" style="fill:#1980e6;stroke:#ffffff;stroke-linejoin:miter;"/>
   </g>
   <g id="patch_8">
    <path d="M 595.759398 103.041771 
C 594.32037 102.450454 592.870043 101.887013 591.409232 101.351765 
C 589.948421 100.816517 588.477398 100.309561 586.996988 99.831182 
L 577.33154 129.742254 
C 578.426426 130.096055 579.51437 130.470991 580.594762 130.866852 
C 581.675154 131.262712 582.747791 131.679424 583.812072 132.116752 
L 595.759398 103.041771 
z
" style="fill:#80bfff;stroke:#ffffff;stroke-linejoin:miter;"/>
   </g>
   <g id="patch_9">
    <path d="M 586.33011 99.98307 
C 564.913879 93.06264 541.982985 92.26804 520.139087 97.689423 
C 498.295189 103.110805 478.396867 114.535081 462.701715 130.666091 
C 447.006564 146.797102 436.131485 167.000813 431.310328 188.984983 
C 426.489171 210.969153 427.911432 233.869687 435.415746 255.088371 
L 465.050914 244.607437 
C 459.500848 228.914452 458.448967 211.977599 462.014615 195.718474 
C 465.580262 179.459348 473.623289 164.51702 485.231161 152.586793 
C 496.839034 140.656567 511.555501 132.207363 527.710884 128.197799 
C 543.866267 124.188235 560.825574 124.775907 576.664662 129.894142 
L 586.33011 99.98307 
z
" style="fill:#a6bfd9;stroke:#ffffff;stroke-linejoin:miter;"/>
   </g>
   <g id="patch_10">
    <path d="M 436.061571 256.124381 
C 446.563484 285.818869 468.281878 310.254438 496.538974 324.168078 
C 524.79607 338.081717 557.406252 340.39724 587.345836 330.615923 
C 617.28542 320.834606 642.238652 299.713009 656.831026 271.800369 
C 671.423399 243.88773 674.526231 211.34302 665.471222 181.175825 
L 635.364293 190.212745 
C 642.061226 212.523899 639.766424 236.593424 628.974147 257.237147 
C 618.181871 277.88087 599.726876 293.502051 577.584059 300.73615 
C 555.441242 307.970249 531.323295 306.257727 510.424817 295.967431 
C 489.52634 285.677136 473.463778 267.604996 465.696738 245.643447 
L 436.061571 256.124381 
z
" style="fill:#d2acac;stroke:#ffffff;stroke-linejoin:miter;"/>
   </g>
   <g id="patch_11">
    <path d="M 665.857871 180.340221 
C 664.739511 176.614353 663.441691 172.944725 661.968954 169.344188 
C 660.496217 165.743651 658.850286 162.216412 657.036922 158.774823 
L 629.227115 173.427732 
C 630.568248 175.973073 631.785552 178.58176 632.874763 181.244657 
C 633.963975 183.907555 634.923821 186.62155 635.750941 189.37714 
L 665.857871 180.340221 
z
" style="fill:#f28c8c;stroke:#ffffff;stroke-linejoin:miter;"/>
   </g>
   <g id="patch_12">
    <path d="M 657.005465 158.709077 
C 656.642861 158.020888 656.273612 157.33622 655.897771 156.655169 
C 655.52193 155.974118 655.139514 155.296717 654.750577 154.623059 
L 627.52798 170.340034 
C 627.815631 170.83826 628.09846 171.339255 628.376425 171.842949 
C 628.654391 172.346643 628.927481 172.853012 629.195658 173.361985 
L 657.005465 158.709077 
z
" style="fill:#e61919;stroke:#ffffff;stroke-linejoin:miter;"/>
   </g>
   <g id="text_5">
    <!-- Q-Score&gt;50 -->
    <defs>
     <path d="M 61.96875 7.671875 
Q 68.5625 3.125 74.125 1.03125 
L 71.34375 -5.5625 
Q 63.625 -2.78125 55.953125 3.21875 
Q 48 -1.21875 38.375 -1.21875 
Q 28.65625 -1.21875 20.75 3.46875 
Q 12.84375 8.15625 8.5625 16.640625 
Q 4.296875 25.140625 4.296875 35.796875 
Q 4.296875 46.390625 8.59375 55.078125 
Q 12.890625 63.765625 20.828125 68.3125 
Q 28.765625 72.859375 38.578125 72.859375 
Q 48.484375 72.859375 56.4375 68.140625 
Q 64.40625 63.421875 68.578125 54.953125 
Q 72.75 46.484375 72.75 35.84375 
Q 72.75 27 70.0625 19.9375 
Q 67.390625 12.890625 61.96875 7.671875 
z
M 41.109375 19.78125 
Q 49.3125 17.484375 54.640625 12.9375 
Q 62.984375 20.5625 62.984375 35.84375 
Q 62.984375 44.53125 60.03125 51.015625 
Q 57.078125 57.515625 51.390625 61.109375 
Q 45.703125 64.703125 38.625 64.703125 
Q 28.03125 64.703125 21.046875 57.453125 
Q 14.0625 50.203125 14.0625 35.796875 
Q 14.0625 21.828125 20.96875 14.359375 
Q 27.875 6.890625 38.625 6.890625 
Q 43.703125 6.890625 48.1875 8.796875 
Q 43.75 11.671875 38.8125 12.890625 
z
" id="ArialMT-81"/>
     <path d="M 3.171875 21.484375 
L 3.171875 30.328125 
L 30.171875 30.328125 
L 30.171875 21.484375 
z
" id="ArialMT-45"/>
     <path d="M 40.4375 19 
L 49.078125 17.875 
Q 47.65625 8.9375 41.8125 3.875 
Q 35.984375 -1.171875 27.484375 -1.171875 
Q 16.84375 -1.171875 10.375 5.78125 
Q 3.90625 12.75 3.90625 25.734375 
Q 3.90625 34.125 6.6875 40.421875 
Q 9.46875 46.734375 15.15625 49.875 
Q 20.84375 53.03125 27.546875 53.03125 
Q 35.984375 53.03125 41.359375 48.75 
Q 46.734375 44.484375 48.25 36.625 
L 39.703125 35.296875 
Q 38.484375 40.53125 35.375 43.15625 
Q 32.28125 45.796875 27.875 45.796875 
Q 21.234375 45.796875 17.078125 41.03125 
Q 12.9375 36.28125 12.9375 25.984375 
Q 12.9375 15.53125 16.9375 10.796875 
Q 20.953125 6.0625 27.390625 6.0625 
Q 32.5625 6.0625 36.03125 9.234375 
Q 39.5 12.40625 40.4375 19 
z
" id="ArialMT-99"/>
     <path d="M 6.5 0 
L 6.5 51.859375 
L 14.40625 51.859375 
L 14.40625 44 
Q 17.4375 49.515625 20 51.265625 
Q 22.5625 53.03125 25.640625 53.03125 
Q 30.078125 53.03125 34.671875 50.203125 
L 31.640625 42.046875 
Q 28.421875 43.953125 25.203125 43.953125 
Q 22.3125 43.953125 20.015625 42.21875 
Q 17.71875 40.484375 16.75 37.40625 
Q 15.28125 32.71875 15.28125 27.15625 
L 15.28125 0 
z
" id="ArialMT-114"/>
     <path d="M 52.875 31.296875 
L 5.46875 11.03125 
L 5.46875 19.78125 
L 43.015625 35.359375 
L 5.46875 50.78125 
L 5.46875 59.515625 
L 52.875 39.5 
z
" id="ArialMT-62"/>
     <path d="M 4.15625 18.75 
L 13.375 19.53125 
Q 14.40625 12.796875 18.140625 9.390625 
Q 21.875 6 27.15625 6 
Q 33.5 6 37.890625 10.78125 
Q 42.28125 15.578125 42.28125 23.484375 
Q 42.28125 31 38.0625 35.34375 
Q 33.84375 39.703125 27 39.703125 
Q 22.75 39.703125 19.328125 37.765625 
Q 15.921875 35.84375 13.96875 32.765625 
L 5.71875 33.84375 
L 12.640625 70.609375 
L 48.25 70.609375 
L 48.25 62.203125 
L 19.671875 62.203125 
L 15.828125 42.96875 
Q 22.265625 47.46875 29.34375 47.46875 
Q 38.71875 47.46875 45.15625 40.96875 
Q 51.609375 34.46875 51.609375 24.265625 
Q 51.609375 14.546875 45.953125 7.46875 
Q 39.0625 -1.21875 27.15625 -1.21875 
Q 17.390625 -1.21875 11.203125 4.25 
Q 5.03125 9.71875 4.15625 18.75 
z
" id="ArialMT-53"/>
     <path d="M 4.15625 35.296875 
Q 4.15625 48 6.765625 55.734375 
Q 9.375 63.484375 14.515625 67.671875 
Q 19.671875 71.875 27.484375 71.875 
Q 33.25 71.875 37.59375 69.546875 
Q 41.9375 67.234375 44.765625 62.859375 
Q 47.609375 58.5 49.21875 52.21875 
Q 50.828125 45.953125 50.828125 35.296875 
Q 50.828125 22.703125 48.234375 14.96875 
Q 45.65625 7.234375 40.5 3 
Q 35.359375 -1.21875 27.484375 -1.21875 
Q 17.140625 -1.21875 11.234375 6.203125 
Q 4.15625 15.140625 4.15625 35.296875 
z
M 13.1875 35.296875 
Q 13.1875 17.671875 17.3125 11.828125 
Q 21.4375 6 27.484375 6 
Q 33.546875 6 37.671875 11.859375 
Q 41.796875 17.71875 41.796875 35.296875 
Q 41.796875 52.984375 37.671875 58.78125 
Q 33.546875 64.59375 27.390625 64.59375 
Q 21.34375 64.59375 17.71875 59.46875 
Q 13.1875 52.9375 13.1875 35.296875 
z
" id="ArialMT-48"/>
    </defs>
    <g style="fill:#ffffff;" transform="translate(475.900245 192.851035)scale(0.12 -0.12)">
     <use xlink:href="#ArialMT-81"/>
     <use x="77.783203" xlink:href="#ArialMT-45"/>
     <use x="111.083984" xlink:href="#ArialMT-83"/>
     <use x="177.783203" xlink:href="#ArialMT-99"/>
     <use x="227.783203" xlink:href="#ArialMT-111"/>
     <use x="283.398438" xlink:href="#ArialMT-114"/>
     <use x="316.699219" xlink:href="#ArialMT-101"/>
     <use x="372.314453" xlink:href="#ArialMT-62"/>
     <use x="430.712891" xlink:href="#ArialMT-53"/>
     <use x="486.328125" xlink:href="#ArialMT-48"/>
    </g>
    <!-- 47.1% (153) -->
    <g style="fill:#ffffff;" transform="translate(475.562745 205.718785)scale(0.12 -0.12)">
     <use xlink:href="#ArialMT-52"/>
     <use x="55.615234" xlink:href="#ArialMT-55"/>
     <use x="111.230469" xlink:href="#ArialMT-46"/>
     <use x="139.013672" xlink:href="#ArialMT-49"/>
     <use x="194.628906" xlink:href="#ArialMT-37"/>
     <use x="283.544922" xlink:href="#ArialMT-32"/>
     <use x="311.328125" xlink:href="#ArialMT-40"/>
     <use x="344.628906" xlink:href="#ArialMT-49"/>
     <use x="400.244141" xlink:href="#ArialMT-53"/>
     <use x="455.859375" xlink:href="#ArialMT-51"/>
     <use x="511.474609" xlink:href="#ArialMT-41"/>
    </g>
   </g>
   <g id="text_6">
    <!-- Q-Score&lt;=50 -->
    <defs>
     <path d="M 5.46875 31.296875 
L 5.46875 39.5 
L 52.875 59.515625 
L 52.875 50.78125 
L 15.28125 35.359375 
L 52.875 19.78125 
L 52.875 11.03125 
z
" id="ArialMT-60"/>
     <path d="M 52.828125 42.09375 
L 5.5625 42.09375 
L 5.5625 50.296875 
L 52.828125 50.296875 
z
M 52.828125 20.359375 
L 5.5625 20.359375 
L 5.5625 28.5625 
L 52.828125 28.5625 
z
" id="ArialMT-61"/>
    </defs>
    <g style="fill:#ffffff;" transform="translate(558.399885 230.76434)scale(0.12 -0.12)">
     <use xlink:href="#ArialMT-81"/>
     <use x="77.783203" xlink:href="#ArialMT-45"/>
     <use x="111.083984" xlink:href="#ArialMT-83"/>
     <use x="177.783203" xlink:href="#ArialMT-99"/>
     <use x="227.783203" xlink:href="#ArialMT-111"/>
     <use x="283.398438" xlink:href="#ArialMT-114"/>
     <use x="316.699219" xlink:href="#ArialMT-101"/>
     <use x="372.314453" xlink:href="#ArialMT-60"/>
     <use x="430.712891" xlink:href="#ArialMT-61"/>
     <use x="489.111328" xlink:href="#ArialMT-53"/>
     <use x="544.726562" xlink:href="#ArialMT-48"/>
    </g>
    <!-- 52.9% (172) -->
    <g style="fill:#ffffff;" transform="translate(558.399885 243.63209)scale(0.12 -0.12)">
     <use xlink:href="#ArialMT-53"/>
     <use x="55.615234" xlink:href="#ArialMT-50"/>
     <use x="111.230469" xlink:href="#ArialMT-46"/>
     <use x="139.013672" xlink:href="#ArialMT-57"/>
     <use x="194.628906" xlink:href="#ArialMT-37"/>
     <use x="283.544922" xlink:href="#ArialMT-32"/>
     <use x="311.328125" xlink:href="#ArialMT-40"/>
     <use x="344.628906" xlink:href="#ArialMT-49"/>
     <use x="400.244141" xlink:href="#ArialMT-55"/>
     <use x="455.859375" xlink:href="#ArialMT-50"/>
     <use x="511.474609" xlink:href="#ArialMT-41"/>
    </g>
   </g>
   <g id="text_7">
    <!-- True Positive 10.5% (34) -->
    <defs>
     <path d="M 25.921875 0 
L 25.921875 63.140625 
L 2.34375 63.140625 
L 2.34375 71.578125 
L 59.078125 71.578125 
L 59.078125 63.140625 
L 35.40625 63.140625 
L 35.40625 0 
z
" id="ArialMT-84"/>
     <path d="M 40.578125 0 
L 40.578125 7.625 
Q 34.515625 -1.171875 24.125 -1.171875 
Q 19.53125 -1.171875 15.546875 0.578125 
Q 11.578125 2.34375 9.640625 5 
Q 7.71875 7.671875 6.9375 11.53125 
Q 6.390625 14.109375 6.390625 19.734375 
L 6.390625 51.859375 
L 15.1875 51.859375 
L 15.1875 23.09375 
Q 15.1875 16.21875 15.71875 13.8125 
Q 16.546875 10.359375 19.234375 8.375 
Q 21.921875 6.390625 25.875 6.390625 
Q 29.828125 6.390625 33.296875 8.421875 
Q 36.765625 10.453125 38.203125 13.9375 
Q 39.65625 17.4375 39.65625 24.078125 
L 39.65625 51.859375 
L 48.4375 51.859375 
L 48.4375 0 
z
" id="ArialMT-117"/>
    </defs>
    <g style="fill:#262626;" transform="translate(635.100598 120.428573)scale(0.11 -0.11)">
     <use xlink:href="#ArialMT-84"/>
     <use x="61.037109" xlink:href="#ArialMT-114"/>
     <use x="94.337891" xlink:href="#ArialMT-117"/>
     <use x="149.953125" xlink:href="#ArialMT-101"/>
     <use x="205.568359" xlink:href="#ArialMT-32"/>
     <use x="233.351562" xlink:href="#ArialMT-80"/>
     <use x="300.050781" xlink:href="#ArialMT-111"/>
     <use x="355.666016" xlink:href="#ArialMT-115"/>
     <use x="405.666016" xlink:href="#ArialMT-105"/>
     <use x="427.882812" xlink:href="#ArialMT-116"/>
     <use x="455.666016" xlink:href="#ArialMT-105"/>
     <use x="477.882812" xlink:href="#ArialMT-118"/>
     <use x="527.882812" xlink:href="#ArialMT-101"/>
     <use x="583.498047" xlink:href="#ArialMT-32"/>
     <use x="611.28125" xlink:href="#ArialMT-49"/>
     <use x="666.896484" xlink:href="#ArialMT-48"/>
     <use x="722.511719" xlink:href="#ArialMT-46"/>
     <use x="750.294922" xlink:href="#ArialMT-53"/>
     <use x="805.910156" xlink:href="#ArialMT-37"/>
     <use x="894.826172" xlink:href="#ArialMT-32"/>
     <use x="922.609375" xlink:href="#ArialMT-40"/>
     <use x="955.910156" xlink:href="#ArialMT-51"/>
     <use x="1011.525391" xlink:href="#ArialMT-52"/>
     <use x="1067.140625" xlink:href="#ArialMT-41"/>
    </g>
   </g>
   <g id="text_8">
    <!-- False Positive 1.2% (4) -->
    <defs>
     <path d="M 8.203125 0 
L 8.203125 71.578125 
L 56.5 71.578125 
L 56.5 63.140625 
L 17.671875 63.140625 
L 17.671875 40.96875 
L 51.265625 40.96875 
L 51.265625 32.515625 
L 17.671875 32.515625 
L 17.671875 0 
z
" id="ArialMT-70"/>
     <path d="M 6.390625 0 
L 6.390625 71.578125 
L 15.1875 71.578125 
L 15.1875 0 
z
" id="ArialMT-108"/>
    </defs>
    <g style="fill:#262626;" transform="translate(594.316162 96.26436)scale(0.11 -0.11)">
     <use xlink:href="#ArialMT-70"/>
     <use x="61.083984" xlink:href="#ArialMT-97"/>
     <use x="116.699219" xlink:href="#ArialMT-108"/>
     <use x="138.916016" xlink:href="#ArialMT-115"/>
     <use x="188.916016" xlink:href="#ArialMT-101"/>
     <use x="244.53125" xlink:href="#ArialMT-32"/>
     <use x="272.314453" xlink:href="#ArialMT-80"/>
     <use x="339.013672" xlink:href="#ArialMT-111"/>
     <use x="394.628906" xlink:href="#ArialMT-115"/>
     <use x="444.628906" xlink:href="#ArialMT-105"/>
     <use x="466.845703" xlink:href="#ArialMT-116"/>
     <use x="494.628906" xlink:href="#ArialMT-105"/>
     <use x="516.845703" xlink:href="#ArialMT-118"/>
     <use x="566.845703" xlink:href="#ArialMT-101"/>
     <use x="622.460938" xlink:href="#ArialMT-32"/>
     <use x="650.244141" xlink:href="#ArialMT-49"/>
     <use x="705.859375" xlink:href="#ArialMT-46"/>
     <use x="733.642578" xlink:href="#ArialMT-50"/>
     <use x="789.257812" xlink:href="#ArialMT-37"/>
     <use x="878.173828" xlink:href="#ArialMT-32"/>
     <use x="905.957031" xlink:href="#ArialMT-40"/>
     <use x="939.257812" xlink:href="#ArialMT-52"/>
     <use x="994.873047" xlink:href="#ArialMT-41"/>
    </g>
   </g>
   <g id="text_9">
    <!-- Not Tested -->
    <defs>
     <path d="M 40.234375 0 
L 40.234375 6.546875 
Q 35.296875 -1.171875 25.734375 -1.171875 
Q 19.53125 -1.171875 14.328125 2.25 
Q 9.125 5.671875 6.265625 11.796875 
Q 3.421875 17.921875 3.421875 25.875 
Q 3.421875 33.640625 6 39.96875 
Q 8.59375 46.296875 13.765625 49.65625 
Q 18.953125 53.03125 25.34375 53.03125 
Q 30.03125 53.03125 33.6875 51.046875 
Q 37.359375 49.078125 39.65625 45.90625 
L 39.65625 71.578125 
L 48.390625 71.578125 
L 48.390625 0 
z
M 12.453125 25.875 
Q 12.453125 15.921875 16.640625 10.984375 
Q 20.84375 6.0625 26.5625 6.0625 
Q 32.328125 6.0625 36.34375 10.765625 
Q 40.375 15.484375 40.375 25.140625 
Q 40.375 35.796875 36.265625 40.765625 
Q 32.171875 45.75 26.171875 45.75 
Q 20.3125 45.75 16.375 40.96875 
Q 12.453125 36.1875 12.453125 25.875 
z
" id="ArialMT-100"/>
    </defs>
    <g style="fill:#262626;" transform="translate(402.867831 121.590854)scale(0.11 -0.11)">
     <use xlink:href="#ArialMT-78"/>
     <use x="72.216797" xlink:href="#ArialMT-111"/>
     <use x="127.832031" xlink:href="#ArialMT-116"/>
     <use x="155.615234" xlink:href="#ArialMT-32"/>
     <use x="183.382812" xlink:href="#ArialMT-84"/>
     <use x="244.294922" xlink:href="#ArialMT-101"/>
     <use x="299.910156" xlink:href="#ArialMT-115"/>
     <use x="349.910156" xlink:href="#ArialMT-116"/>
     <use x="377.693359" xlink:href="#ArialMT-101"/>
     <use x="433.308594" xlink:href="#ArialMT-100"/>
    </g>
    <!-- 35.4% (115) -->
    <g style="fill:#262626;" transform="translate(396.73705 133.386291)scale(0.11 -0.11)">
     <use xlink:href="#ArialMT-51"/>
     <use x="55.615234" xlink:href="#ArialMT-53"/>
     <use x="111.230469" xlink:href="#ArialMT-46"/>
     <use x="139.013672" xlink:href="#ArialMT-52"/>
     <use x="194.628906" xlink:href="#ArialMT-37"/>
     <use x="283.544922" xlink:href="#ArialMT-32"/>
     <use x="311.328125" xlink:href="#ArialMT-40"/>
     <use x="344.628906" xlink:href="#ArialMT-49"/>
     <use x="400.134766" xlink:href="#ArialMT-49"/>
     <use x="455.75" xlink:href="#ArialMT-53"/>
     <use x="511.365234" xlink:href="#ArialMT-41"/>
    </g>
   </g>
   <g id="text_10">
    <!-- Not Tested 49.2% (160) -->
    <g style="fill:#262626;" transform="translate(589.969802 341.493856)scale(0.11 -0.11)">
     <use xlink:href="#ArialMT-78"/>
     <use x="72.216797" xlink:href="#ArialMT-111"/>
     <use x="127.832031" xlink:href="#ArialMT-116"/>
     <use x="155.615234" xlink:href="#ArialMT-32"/>
     <use x="183.382812" xlink:href="#ArialMT-84"/>
     <use x="244.294922" xlink:href="#ArialMT-101"/>
     <use x="299.910156" xlink:href="#ArialMT-115"/>
     <use x="349.910156" xlink:href="#ArialMT-116"/>
     <use x="377.693359" xlink:href="#ArialMT-101"/>
     <use x="433.308594" xlink:href="#ArialMT-100"/>
     <use x="488.923828" xlink:href="#ArialMT-32"/>
     <use x="516.707031" xlink:href="#ArialMT-52"/>
     <use x="572.322266" xlink:href="#ArialMT-57"/>
     <use x="627.9375" xlink:href="#ArialMT-46"/>
     <use x="655.720703" xlink:href="#ArialMT-50"/>
     <use x="711.335938" xlink:href="#ArialMT-37"/>
     <use x="800.251953" xlink:href="#ArialMT-32"/>
     <use x="828.035156" xlink:href="#ArialMT-40"/>
     <use x="861.335938" xlink:href="#ArialMT-49"/>
     <use x="916.951172" xlink:href="#ArialMT-54"/>
     <use x="972.566406" xlink:href="#ArialMT-48"/>
     <use x="1028.181641" xlink:href="#ArialMT-41"/>
    </g>
   </g>
   <g id="text_11">
    <!-- False Positive 3.1% (10) -->
    <g style="fill:#262626;" transform="translate(669.789473 168.991592)scale(0.11 -0.11)">
     <use xlink:href="#ArialMT-70"/>
     <use x="61.083984" xlink:href="#ArialMT-97"/>
     <use x="116.699219" xlink:href="#ArialMT-108"/>
     <use x="138.916016" xlink:href="#ArialMT-115"/>
     <use x="188.916016" xlink:href="#ArialMT-101"/>
     <use x="244.53125" xlink:href="#ArialMT-32"/>
     <use x="272.314453" xlink:href="#ArialMT-80"/>
     <use x="339.013672" xlink:href="#ArialMT-111"/>
     <use x="394.628906" xlink:href="#ArialMT-115"/>
     <use x="444.628906" xlink:href="#ArialMT-105"/>
     <use x="466.845703" xlink:href="#ArialMT-116"/>
     <use x="494.628906" xlink:href="#ArialMT-105"/>
     <use x="516.845703" xlink:href="#ArialMT-118"/>
     <use x="566.845703" xlink:href="#ArialMT-101"/>
     <use x="622.460938" xlink:href="#ArialMT-32"/>
     <use x="650.244141" xlink:href="#ArialMT-51"/>
     <use x="705.859375" xlink:href="#ArialMT-46"/>
     <use x="733.642578" xlink:href="#ArialMT-49"/>
     <use x="789.257812" xlink:href="#ArialMT-37"/>
     <use x="878.173828" xlink:href="#ArialMT-32"/>
     <use x="905.957031" xlink:href="#ArialMT-40"/>
     <use x="939.257812" xlink:href="#ArialMT-49"/>
     <use x="994.873047" xlink:href="#ArialMT-48"/>
     <use x="1050.488281" xlink:href="#ArialMT-41"/>
    </g>
   </g>
   <g id="text_12">
    <!-- True Positive 0.6% (2) -->
    <g style="fill:#262626;" transform="translate(663.295508 155.418944)scale(0.11 -0.11)">
     <use xlink:href="#ArialMT-84"/>
     <use x="61.037109" xlink:href="#ArialMT-114"/>
     <use x="94.337891" xlink:href="#ArialMT-117"/>
     <use x="149.953125" xlink:href="#ArialMT-101"/>
     <use x="205.568359" xlink:href="#ArialMT-32"/>
     <use x="233.351562" xlink:href="#ArialMT-80"/>
     <use x="300.050781" xlink:href="#ArialMT-111"/>
     <use x="355.666016" xlink:href="#ArialMT-115"/>
     <use x="405.666016" xlink:href="#ArialMT-105"/>
     <use x="427.882812" xlink:href="#ArialMT-116"/>
     <use x="455.666016" xlink:href="#ArialMT-105"/>
     <use x="477.882812" xlink:href="#ArialMT-118"/>
     <use x="527.882812" xlink:href="#ArialMT-101"/>
     <use x="583.498047" xlink:href="#ArialMT-32"/>
     <use x="611.28125" xlink:href="#ArialMT-48"/>
     <use x="666.896484" xlink:href="#ArialMT-46"/>
     <use x="694.679688" xlink:href="#ArialMT-54"/>
     <use x="750.294922" xlink:href="#ArialMT-37"/>
     <use x="839.210938" xlink:href="#ArialMT-32"/>
     <use x="866.994141" xlink:href="#ArialMT-40"/>
     <use x="900.294922" xlink:href="#ArialMT-50"/>
     <use x="955.910156" xlink:href="#ArialMT-41"/>
    </g>
   </g>
   <g id="text_13">
    <!-- b -->
    <defs>
     <path d="M 6.59375 0 
L 6.59375 71.578125 
L 20.3125 71.578125 
L 20.3125 45.796875 
Q 26.65625 53.03125 35.359375 53.03125 
Q 44.828125 53.03125 51.03125 46.171875 
Q 57.234375 39.3125 57.234375 26.46875 
Q 57.234375 13.1875 50.90625 6 
Q 44.578125 -1.171875 35.546875 -1.171875 
Q 31.109375 -1.171875 26.78125 1.046875 
Q 22.46875 3.265625 19.34375 7.625 
L 19.34375 0 
z
M 20.21875 27.046875 
Q 20.21875 19 22.75 15.140625 
Q 26.3125 9.671875 32.234375 9.671875 
Q 36.765625 9.671875 39.96875 13.546875 
Q 43.171875 17.4375 43.171875 25.78125 
Q 43.171875 34.671875 39.9375 38.59375 
Q 36.71875 42.53125 31.6875 42.53125 
Q 26.765625 42.53125 23.484375 38.6875 
Q 20.21875 34.859375 20.21875 27.046875 
z
" id="Arial-BoldMT-98"/>
    </defs>
    <g style="fill:#262626;" transform="translate(382.723136 69.562758)scale(0.16 -0.16)">
     <use xlink:href="#Arial-BoldMT-98"/>
    </g>
   </g>
  </g>
 </g>
</svg>
